<svg xmlns="http://www.w3.org/2000/svg" viewBox="0 0 800 700" font-family="Inter, sans-serif">
  <rect width="800" height="700" fill="#fafaf9"/>
  <rect x="0" y="0" width="800" height="60" fill="white" stroke="#e2e8f0"/>
  <text x="40" y="38" font-size="18" font-weight="bold" fill="#0f172a">AI-transformation</text>
  <text x="400" y="130" text-anchor="middle" font-size="32" font-weight="700" fill="#0f172a">Регистрация</text>
  <text x="400" y="160" text-anchor="middle" font-size="14" fill="#64748b">Вас пригласили в AI-transformation IBG</text>
  <rect x="200" y="200" width="400" height="420" rx="12" fill="white" stroke="#e2e8f0"/>
  <text x="230" y="235" font-size="13" fill="#475569">Имя и фамилия</text>
  <rect x="230" y="245" width="340" height="40" rx="8" fill="white" stroke="#cbd5e1"/>
  <text x="245" y="270" font-size="14" fill="#cbd5e1">Антон Иванов</text>
  <text x="230" y="310" font-size="13" fill="#475569">Email</text>
  <rect x="230" y="320" width="340" height="40" rx="8" fill="#f1f5f9" stroke="#cbd5e1"/>
  <text x="245" y="345" font-size="14" fill="#64748b">anton@ibg.com (предзаполнено)</text>
  <text x="230" y="385" font-size="13" fill="#475569">Пароль</text>
  <rect x="230" y="395" width="340" height="40" rx="8" fill="white" stroke="#cbd5e1"/>
  <text x="245" y="420" font-size="14" fill="#cbd5e1">Минимум 8 символов</text>
  <text x="230" y="460" font-size="13" fill="#475569">Повтор пароля</text>
  <rect x="230" y="470" width="340" height="40" rx="8" fill="white" stroke="#cbd5e1"/>
  <rect x="230" y="540" width="340" height="48" rx="8" fill="#0f172a"/>
  <text x="400" y="570" text-anchor="middle" font-size="15" font-weight="600" fill="white">Зарегистрироваться</text>
  <text x="400" y="660" text-anchor="middle" font-size="12" fill="#94a3b8">Уже есть аккаунт? Войти</text>
</svg>
