<svg xmlns="http://www.w3.org/2000/svg" viewBox="0 0 800 900" font-family="Inter, sans-serif">
  <rect width="800" height="900" fill="#fafaf9"/>
  <rect x="0" y="0" width="800" height="60" fill="white" stroke="#e2e8f0"/>
  <text x="40" y="38" font-size="18" font-weight="bold" fill="#0f172a">AI-transformation</text>
  <text x="600" y="38" font-size="14" fill="#475569">Моя программа</text>
  <text x="710" y="38" font-size="14" fill="#475569">Профиль</text>
  <text x="40" y="120" font-size="32" font-weight="700" fill="#0f172a">Добро пожаловать, Антон!</text>
  <text x="40" y="150" font-size="16" fill="#64748b">Программа: «Базовая для агента по аренде» · 9 часов</text>
  <rect x="40" y="180" width="720" height="8" rx="4" fill="#e2e8f0"/>
  <rect x="40" y="180" width="216" height="8" rx="4" fill="#16a34a"/>
  <text x="40" y="210" font-size="13" fill="#16a34a">Прогресс: 30%</text>
  <rect x="40" y="240" width="720" height="80" rx="12" fill="#0f172a"/>
  <text x="60" y="278" font-size="14" fill="#94a3b8">Продолжить с урока</text>
  <text x="60" y="300" font-size="18" font-weight="600" fill="white">→ Урок 4: Projects — постоянный контекст Claude</text>
  <text x="40" y="370" font-size="20" font-weight="600" fill="#0f172a">Курсы в вашей программе</text>
  <rect x="40" y="395" width="720" height="120" rx="12" fill="white" stroke="#e2e8f0"/>
  <text x="60" y="425" font-size="16" font-weight="600" fill="#0f172a">📘 Claude 101: основы</text>
  <text x="60" y="450" font-size="13" fill="#64748b">База Claude. Без неё невозможно идти дальше.</text>
  <text x="60" y="478" font-size="12" fill="#94a3b8">12 уроков · 4 часа · В процессе</text>
  <rect x="60" y="495" width="350" height="6" rx="3" fill="#e2e8f0"/>
  <rect x="60" y="495" width="105" height="6" rx="3" fill="#16a34a"/>
  <text x="700" y="475" text-anchor="end" font-size="14" fill="#16a34a">3/12 завершено</text>
  <rect x="40" y="535" width="720" height="120" rx="12" fill="white" stroke="#e2e8f0"/>
  <text x="60" y="565" font-size="16" font-weight="600" fill="#0f172a">🎯 Возможности и ограничения AI</text>
  <text x="60" y="590" font-size="13" fill="#64748b">Калибровка ожиданий. Где AI помогает, где ошибается.</text>
  <text x="60" y="618" font-size="12" fill="#94a3b8">5 уроков · 1.5 часа · Не начат</text>
  <rect x="40" y="675" width="720" height="120" rx="12" fill="white" stroke="#e2e8f0"/>
  <text x="60" y="705" font-size="16" font-weight="600" fill="#0f172a">🧠 AI Fluency: фреймворк и основы</text>
  <text x="60" y="730" font-size="13" fill="#64748b">Фреймворк работы с AI. Контекст, итерации, проверка.</text>
  <text x="60" y="758" font-size="12" fill="#94a3b8">10 уроков · 4 часа · Не начат</text>
</svg>
