<svg xmlns="http://www.w3.org/2000/svg" viewBox="0 0 800 800" font-family="Inter, sans-serif">
  <rect width="800" height="800" fill="#fafaf9"/>
  <rect x="0" y="0" width="800" height="60" fill="white" stroke="#e2e8f0"/>
  <text x="40" y="38" font-size="18" font-weight="bold" fill="#0f172a">AI-transformation</text>
  <text x="40" y="120" font-size="32" font-weight="700" fill="#0f172a">Профиль</text>
  <rect x="40" y="160" width="720" height="160" rx="12" fill="white" stroke="#e2e8f0"/>
  <circle cx="100" cy="220" r="40" fill="#dbeafe"/>
  <text x="100" y="232" text-anchor="middle" font-size="32" fill="#1e40af">А</text>
  <text x="160" y="200" font-size="22" font-weight="600" fill="#0f172a">Антон Иванов</text>
  <text x="160" y="225" font-size="14" fill="#64748b">anton.ivanov@ibg.com</text>
  <text x="160" y="248" font-size="13" fill="#475569">🏘 Агент по аренде · Уровень: Изучающий</text>
  <rect x="160" y="270" width="180" height="36" rx="8" fill="white" stroke="#cbd5e1"/>
  <text x="250" y="293" text-anchor="middle" font-size="13" fill="#475569">Пересдать опрос</text>
  <rect x="40" y="345" width="720" height="180" rx="12" fill="white" stroke="#e2e8f0"/>
  <text x="60" y="380" font-size="18" font-weight="600" fill="#0f172a">Прогресс по программе</text>
  <text x="60" y="415" font-size="14" fill="#0f172a">Курсов в программе: 3</text>
  <text x="60" y="438" font-size="14" fill="#16a34a">Завершено: 0</text>
  <text x="60" y="461" font-size="14" fill="#3b82f6">В процессе: 1 (Claude 101 — 30%)</text>
  <text x="60" y="495" font-size="14" fill="#475569">Часов потрачено: 1ч 23мин</text>
  <rect x="40" y="550" width="720" height="140" rx="12" fill="white" stroke="#e2e8f0"/>
  <text x="60" y="585" font-size="18" font-weight="600" fill="#0f172a">Сертификаты</text>
  <text x="60" y="615" font-size="14" fill="#94a3b8">Пока нет. Завершите Claude 101 — получите первый.</text>
  <rect x="320" y="730" width="160" height="44" rx="8" fill="white" stroke="#dc2626"/>
  <text x="400" y="757" text-anchor="middle" font-size="14" fill="#dc2626">Выйти</text>
</svg>
