<svg xmlns="http://www.w3.org/2000/svg" viewBox="0 0 800 700" font-family="Inter, sans-serif">
  <rect width="800" height="700" fill="#fafaf9"/>
  <rect x="0" y="0" width="800" height="60" fill="white" stroke="#e2e8f0"/>
  <text x="40" y="38" font-size="18" font-weight="bold" fill="#0f172a">AI-transformation</text>
  <text x="660" y="38" font-size="13" fill="#dc2626">⚙ Admin</text>
  <text x="40" y="120" font-size="32" font-weight="700" fill="#0f172a">Админка</text>
  <text x="40" y="170" font-size="15" font-weight="600" fill="#0f172a">Инвайты</text>
  <text x="125" y="170" font-size="15" fill="#64748b">Пользователи</text>
  <text x="245" y="170" font-size="15" fill="#64748b">Курсы</text>
  <text x="310" y="170" font-size="15" fill="#64748b">Аналитика</text>
  <line x1="40" y1="180" x2="98" y2="180" stroke="#0f172a" stroke-width="2"/>
  <rect x="40" y="210" width="720" height="56" rx="8" fill="white" stroke="#e2e8f0"/>
  <text x="60" y="244" font-size="14" fill="#0f172a">Создать invite</text>
  <rect x="200" y="220" width="260" height="36" rx="6" fill="#f1f5f9" stroke="#cbd5e1"/>
  <text x="215" y="243" font-size="13" fill="#94a3b8">Email сотрудника...</text>
  <rect x="475" y="220" width="120" height="36" rx="6" fill="#f1f5f9" stroke="#cbd5e1"/>
  <text x="535" y="243" text-anchor="middle" font-size="13" fill="#475569">Роль (опц)</text>
  <rect x="610" y="220" width="130" height="36" rx="6" fill="#0f172a"/>
  <text x="675" y="243" text-anchor="middle" font-size="13" font-weight="600" fill="white">+ Создать</text>
  <rect x="40" y="290" width="720" height="40" fill="#f1f5f9"/>
  <text x="60" y="315" font-size="13" font-weight="600" fill="#475569">Email</text>
  <text x="280" y="315" font-size="13" font-weight="600" fill="#475569">Создан</text>
  <text x="420" y="315" font-size="13" font-weight="600" fill="#475569">Статус</text>
  <text x="560" y="315" font-size="13" font-weight="600" fill="#475569">Ссылка</text>
  <rect x="40" y="330" width="720" height="50" fill="white" stroke="#e2e8f0"/>
  <text x="60" y="360" font-size="14" fill="#0f172a">anton@ibg.com</text>
  <text x="280" y="360" font-size="13" fill="#64748b">28.04.2026</text>
  <rect x="415" y="343" width="100" height="24" rx="12" fill="#dcfce7"/>
  <text x="465" y="360" text-anchor="middle" font-size="12" fill="#16a34a">Использован</text>
  <text x="560" y="360" font-size="13" fill="#3b82f6">📋 Копировать</text>
  <rect x="40" y="380" width="720" height="50" fill="white" stroke="#e2e8f0"/>
  <text x="60" y="410" font-size="14" fill="#0f172a">karolina@ibg.com</text>
  <text x="280" y="410" font-size="13" fill="#64748b">29.04.2026</text>
  <rect x="415" y="393" width="100" height="24" rx="12" fill="#fef3c7"/>
  <text x="465" y="410" text-anchor="middle" font-size="12" fill="#92400e">Ожидает</text>
  <text x="560" y="410" font-size="13" fill="#3b82f6">📋 Копировать</text>
  <rect x="40" y="430" width="720" height="50" fill="white" stroke="#e2e8f0"/>
  <text x="60" y="460" font-size="14" fill="#0f172a">misha@ibg.com</text>
  <text x="280" y="460" font-size="13" fill="#64748b">29.04.2026</text>
  <rect x="415" y="443" width="100" height="24" rx="12" fill="#fef3c7"/>
  <text x="465" y="460" text-anchor="middle" font-size="12" fill="#92400e">Ожидает</text>
  <text x="560" y="460" font-size="13" fill="#3b82f6">📋 Копировать</text>
  <text x="400" y="540" text-anchor="middle" font-size="12" fill="#94a3b8">Всего инвайтов: 3 · Использовано: 1 · Ожидает: 2</text>
</svg>
